<?xml version="1.0" encoding="UTF-8" standalone="no"?>
<svg
   id="Layer_1"
   data-name="Layer 1"
   viewBox="0 0 133.91 50"
   version="1.1"
   sodipodi:docname="cwu-logo.svg"
   inkscape:version="1.3.2 (091e20e, 2023-11-25, custom)"
   xmlns:inkscape="http://www.inkscape.org/namespaces/inkscape"
   xmlns:sodipodi="http://sodipodi.sourceforge.net/DTD/sodipodi-0.dtd"
   xmlns="http://www.w3.org/2000/svg"
   xmlns:svg="http://www.w3.org/2000/svg">
  <sodipodi:namedview
     id="namedview26"
     pagecolor="#ffffff"
     bordercolor="#000000"
     borderopacity="0.25"
     inkscape:showpageshadow="2"
     inkscape:pageopacity="0.0"
     inkscape:pagecheckerboard="0"
     inkscape:deskcolor="#d1d1d1"
     inkscape:zoom="15.434793"
     inkscape:cx="71.364743"
     inkscape:cy="26.46618"
     inkscape:window-width="3440"
     inkscape:window-height="1369"
     inkscape:window-x="-8"
     inkscape:window-y="-8"
     inkscape:window-maximized="1"
     inkscape:current-layer="Layer_1" />
  <defs
     id="defs1">
    <style
       id="style1">.cls-1
</style>
  </defs>
  <title
     id="title1">cwu-logo-x1</title>
  <path
     class="cls-1"
     d="M689.63,375.65h0l-1.06-2.75c-1.61,0-3.28.12-5,.28l.9,2.39a74.19,74.19,0,0,0-7.45.64c-5.67.76-12.76,3.45-19.87,6.17a12.42,12.42,0,0,1-.32-1.38c-1.55.59-3.08,1.16-4.6,1.71.1.47.23.95.38,1.4-5.75,2.16-11.31,4.06-15.93,4.68a62.87,62.87,0,0,1-13.75.57c6,1.6,12.36,1.72,20.34.66,11.48-1.53,28.85-11,40.35-12.58a61.25,61.25,0,0,1,13.87-.5,39.81,39.81,0,0,0-7.83-1.28"
     transform="translate(-618.07 -360.22)"
     id="path22" />
  <path
     class="cls-1"
     d="M747,361.67v20c0,5.41-1.56,10.06-7.4,10.06s-7.4-4.65-7.4-10.06v-20H727.4v21.45c0,7.49,4.54,13.33,12.22,13.33s12.22-5.83,12.22-13.33V361.67Z"
     transform="translate(-618.07 -360.22)"
     id="path23" />
  <path
     class="cls-1"
     d="M692.62,371.81a38.14,38.14,0,0,0-4.83-1h0l-3.5-9.16h-5.23l3.4,8.76h.07a67.46,67.46,0,0,0-10.37.65c-4.39.59-9.63,2.33-15.08,4.35a12.91,12.91,0,0,1,19.21-7.54l2.27-4.28a17.74,17.74,0,0,0-26.71,13.8c-7.17,2.74-14.34,5.48-20,6.24a62.85,62.85,0,0,1-13.75.57c6,1.6,12.36,1.72,20.34.66,11.48-1.53,28.85-11,40.35-12.57a61.26,61.26,0,0,1,13.87-.5"
     transform="translate(-618.07 -360.22)"
     id="path24" />
  <path
     class="cls-1"
     d="M711.3,384.76l-9.13-24.55L693,384.76l-2.5-6.62c-1.57.1-3.19.25-4.9.46l7.41,19.18,9.12-24.39,9.12,24.39,14-36.11h-5.22Z"
     transform="translate(-618.07 -360.22)"
     id="path25" />
  <path
     class="cls-1"
     d="M669.53,391.78a12.85,12.85,0,0,1-10.07-4.84c-1.62.6-3.18,1.19-4.74,1.72A17.76,17.76,0,0,0,678.79,394l-2-4.47a12.86,12.86,0,0,1-7.27,2.24"
     transform="translate(-618.07 -360.22)"
     id="path26" />
  <text
     xml:space="preserve"
     style="font-size:8.64px;fill:#000000;stroke-width:1.06666"
     x="40.633987"
     y="47.968105"
     id="text26"
     transform="scale(0.96280288,1.0386342)"><tspan
       sodipodi:role="line"
       id="tspan26"
       x="40.633987"
       y="47.968105"
       style="font-style:italic;font-variant:normal;font-weight:bold;font-stretch:normal;font-size:8.64px;font-family:Arial;-inkscape-font-specification:'Arial Bold Italic';fill:#ff0077;fill-opacity:1;stroke-width:1.06666">South West Wales Amal</tspan></text>
</svg>
