<svg id="Layer_1" data-name="Layer 1" 
xmlns="http://www.w3.org/2000/svg" viewBox="0 0 133.91 50"><defs><style>.cls-1
</style></defs><title>cwu-logo-x1</title><polygon class="cls-1" points="33.85 43.87 33.67 44.78 35.34 44.78 34.37 49.9 35.42 49.9 36.38 44.78 38.07 44.78 38.25 43.87 33.85 43.87"/><path class="cls-1" d="M655.83,410.12l1.21-6.36h1l-.51,2.65h0a1.83,1.83,0,0,1,1.46-.75,1,1,0,0,1,1.09,1.17,4.52,4.52,0,0,1-.08.76l-.47,2.52h-1l.47-2.44a3.54,3.54,0,0,0,.05-.57c0-.33-.15-.59-.55-.59s-1.08.61-1.25,1.53l-.39,2.08Z" transform="translate(-618.07 -360.22)"/><path class="cls-1" d="M663.74,406.89c0-.28-.22-.45-.55-.45a1.35,1.35,0,0,0-1.21,1.11c1.07,0,1.76-.13,1.76-.65Zm.44,3a3.51,3.51,0,0,1-1.54.35,1.63,1.63,0,0,1-1.78-1.8,2.65,2.65,0,0,1,2.46-2.75,1.24,1.24,0,0,1,1.41,1.23c0,1.12-1.17,1.48-2.86,1.44a1.43,1.43,0,0,0,.12.62,1,1,0,0,0,.9.44,2.57,2.57,0,0,0,1.2-.29Z" transform="translate(-618.07 -360.22)"/><path class="cls-1" d="M669.8,410a3,3,0,0,1-1.25.25,1.64,1.64,0,0,1-1.76-1.75,2.75,2.75,0,0,1,2.77-2.8,2.29,2.29,0,0,1,.9.17l-.27.81a1.55,1.55,0,0,0-.66-.13,1.75,1.75,0,0,0-1.64,1.84.91.91,0,0,0,1,1,2.17,2.17,0,0,0,.92-.21Z" transform="translate(-618.07 -360.22)"/><path class="cls-1" d="M672.48,409.41c.78,0,1.3-1.07,1.3-1.94,0-.45-.21-1-.83-1-.83,0-1.32,1.11-1.32,1.93,0,.6.31,1,.84,1Zm-.14.8a1.7,1.7,0,0,1-1.78-1.8,2.61,2.61,0,0,1,2.52-2.76,1.7,1.7,0,0,1,1.78,1.8,2.6,2.6,0,0,1-2.51,2.76Z" transform="translate(-618.07 -360.22)"/><path class="cls-1" d="M675.32,410.12l.55-3c.1-.52.16-1,.21-1.35h.9l-.1.76h0a1.82,1.82,0,0,1,1.51-.86.93.93,0,0,1,1,.89,1.84,1.84,0,0,1,1.55-.89,1,1,0,0,1,1.06,1.16,5.93,5.93,0,0,1-.07.74l-.47,2.55h-1l.45-2.43a2.93,2.93,0,0,0,.06-.55c0-.38-.15-.63-.53-.63s-1,.6-1.18,1.52l-.39,2.09h-1l.47-2.47a3.53,3.53,0,0,0,.05-.51c0-.33-.1-.63-.52-.63s-1,.65-1.2,1.54l-.38,2.07Z" transform="translate(-618.07 -360.22)"/><path class="cls-1" d="M682.67,410.12l.55-3c.1-.52.16-1,.21-1.35h.9l-.1.76h0a1.82,1.82,0,0,1,1.51-.86.93.93,0,0,1,1,.89,1.84,1.84,0,0,1,1.55-.89,1,1,0,0,1,1.06,1.16,6,6,0,0,1-.07.74l-.47,2.55h-1l.45-2.43a2.92,2.92,0,0,0,.06-.55c0-.38-.15-.63-.53-.63s-1,.6-1.18,1.52l-.39,2.09h-1l.47-2.47a3.59,3.59,0,0,0,.05-.51c0-.33-.1-.63-.52-.63s-1,.65-1.2,1.54l-.38,2.07Z" transform="translate(-618.07 -360.22)"/><path class="cls-1" d="M694.47,405.76l-.57,3c-.1.52-.16,1-.22,1.35h-.93l.1-.76h0a1.92,1.92,0,0,1-1.51.86c-.64,0-1.14-.34-1.14-1.23a3.69,3.69,0,0,1,.09-.78l.47-2.44h1l-.45,2.38a3.12,3.12,0,0,0-.07.6c0,.36.14.62.55.62s1-.57,1.22-1.48l.39-2.12Z" transform="translate(-618.07 -360.22)"/><path class="cls-1" d="M694.84,410.12l.56-3c.11-.52.17-1,.22-1.35h.93l-.1.78h0a1.88,1.88,0,0,1,1.57-.88,1.06,1.06,0,0,1,1.11,1.2,4,4,0,0,1-.08.72l-.47,2.54h-1l.47-2.46a3.29,3.29,0,0,0,.05-.52c0-.37-.13-.63-.55-.63s-1.08.57-1.26,1.59l-.38,2Z" transform="translate(-618.07 -360.22)"/><path class="cls-1" d="M701.29,405.13a.51.51,0,0,1-.53-.55.62.62,0,0,1,.63-.63.53.53,0,0,1,.55.56.62.62,0,0,1-.64.63Zm-1.52,5,.83-4.36h1l-.82,4.36Z" transform="translate(-618.07 -360.22)"/><path class="cls-1" d="M705.11,410a3,3,0,0,1-1.25.25,1.64,1.64,0,0,1-1.76-1.75,2.75,2.75,0,0,1,2.77-2.8,2.29,2.29,0,0,1,.9.17l-.27.81a1.55,1.55,0,0,0-.66-.13,1.75,1.75,0,0,0-1.64,1.84.91.91,0,0,0,1,1,2.17,2.17,0,0,0,.92-.21Z" transform="translate(-618.07 -360.22)"/><path class="cls-1" d="M709,406.51a1.7,1.7,0,0,0-.42,0,2,2,0,0,0-1.71,2.08c0,.46.17.83.63.83s1.07-.61,1.28-1.72Zm-.42,3.61c0-.26,0-.61.08-1h0a1.75,1.75,0,0,1-1.56,1.07,1.32,1.32,0,0,1-1.29-1.49,3,3,0,0,1,3.07-3.07,4.64,4.64,0,0,1,1.32.2l-.45,2.28a10.11,10.11,0,0,0-.18,2Z" transform="translate(-618.07 -360.22)"/><path class="cls-1" d="M712.78,404.64l-.21,1.12h1l-.16.8h-1l-.34,1.76a3,3,0,0,0-.08.61.34.34,0,0,0,.39.39l.36,0-.1.81a2.08,2.08,0,0,1-.68.09c-.72,0-1-.39-1-.9a4.08,4.08,0,0,1,.09-.81l.38-1.94h-.58l.15-.8h.58l.16-.82Z" transform="translate(-618.07 -360.22)"/><path class="cls-1" d="M715.07,405.13a.51.51,0,0,1-.53-.55.62.62,0,0,1,.63-.63.53.53,0,0,1,.55.56.62.62,0,0,1-.65.63Zm-1.52,5,.83-4.36h1l-.82,4.36Z" transform="translate(-618.07 -360.22)"/><path class="cls-1" d="M717.81,409.41c.78,0,1.3-1.07,1.3-1.94,0-.45-.21-1-.83-1-.83,0-1.32,1.11-1.32,1.93,0,.6.31,1,.84,1Zm-.14.8a1.7,1.7,0,0,1-1.78-1.8,2.61,2.61,0,0,1,2.52-2.76,1.7,1.7,0,0,1,1.78,1.8,2.6,2.6,0,0,1-2.51,2.76Z" transform="translate(-618.07 -360.22)"/><path class="cls-1" d="M720.64,410.12l.56-3c.11-.52.17-1,.22-1.35h.93l-.1.78h0a1.88,1.88,0,0,1,1.57-.88,1.06,1.06,0,0,1,1.11,1.2,4,4,0,0,1-.08.72l-.47,2.54h-1l.47-2.46a3.29,3.29,0,0,0,.05-.52c0-.37-.13-.63-.55-.63s-1.07.57-1.26,1.59l-.38,2Z" transform="translate(-618.07 -360.22)"/><path class="cls-1" d="M725.67,409.14a2.4,2.4,0,0,0,1,.29c.42,0,.67-.24.67-.54s-.14-.45-.57-.67a1.34,1.34,0,0,1-.86-1.13c0-.84.73-1.43,1.76-1.43a2.16,2.16,0,0,1,1,.22l-.27.75a1.74,1.74,0,0,0-.81-.2c-.39,0-.66.21-.66.5s.2.41.56.61a1.39,1.39,0,0,1,.91,1.16c0,1-.81,1.5-1.85,1.5a2.33,2.33,0,0,1-1.22-.32Z" transform="translate(-618.07 -360.22)"/><path class="cls-1" d="M735.27,405.76l-.57,3c-.1.52-.16,1-.21,1.35h-.93l.1-.76h0a1.92,1.92,0,0,1-1.51.86c-.64,0-1.14-.34-1.14-1.23a3.68,3.68,0,0,1,.09-.78l.47-2.44h1l-.45,2.38a3.12,3.12,0,0,0-.07.6c0,.36.14.62.56.62s1-.57,1.22-1.48l.39-2.12Z" transform="translate(-618.07 -360.22)"/><path class="cls-1" d="M735.64,410.12l.56-3c.11-.52.17-1,.22-1.35h.93l-.1.78h0a1.88,1.88,0,0,1,1.57-.88,1.06,1.06,0,0,1,1.11,1.2,4,4,0,0,1-.08.72l-.47,2.54h-1l.47-2.46a3.37,3.37,0,0,0,.05-.52c0-.37-.13-.63-.55-.63s-1.07.57-1.26,1.59l-.38,2Z" transform="translate(-618.07 -360.22)"/><path class="cls-1" d="M742.09,405.13a.51.51,0,0,1-.53-.55.62.62,0,0,1,.63-.63.53.53,0,0,1,.56.56.62.62,0,0,1-.64.63Zm-1.52,5,.83-4.36h1l-.82,4.36Z" transform="translate(-618.07 -360.22)"/><path class="cls-1" d="M744.83,409.41c.78,0,1.3-1.07,1.3-1.94,0-.45-.21-1-.83-1-.83,0-1.32,1.11-1.32,1.93,0,.6.31,1,.84,1Zm-.14.8a1.7,1.7,0,0,1-1.78-1.8,2.61,2.61,0,0,1,2.52-2.76,1.7,1.7,0,0,1,1.78,1.8,2.6,2.6,0,0,1-2.51,2.76Z" transform="translate(-618.07 -360.22)"/><path class="cls-1" d="M747.66,410.12l.56-3c.11-.52.17-1,.22-1.35h.93l-.1.78h0a1.88,1.88,0,0,1,1.57-.88,1.06,1.06,0,0,1,1.11,1.2,4,4,0,0,1-.08.72l-.47,2.54h-1l.47-2.46a3.29,3.29,0,0,0,.05-.52c0-.37-.13-.63-.55-.63s-1.07.57-1.26,1.59l-.38,2Z" transform="translate(-618.07 -360.22)"/><path class="cls-1" d="M689.63,375.65h0l-1.06-2.75c-1.61,0-3.28.12-5,.28l.9,2.39a74.19,74.19,0,0,0-7.45.64c-5.67.76-12.76,3.45-19.87,6.17a12.42,12.42,0,0,1-.32-1.38c-1.55.59-3.08,1.16-4.6,1.71.1.47.23.95.38,1.4-5.75,2.16-11.31,4.06-15.93,4.68a62.87,62.87,0,0,1-13.75.57c6,1.6,12.36,1.72,20.34.66,11.48-1.53,28.85-11,40.35-12.58a61.25,61.25,0,0,1,13.87-.5,39.81,39.81,0,0,0-7.83-1.28" transform="translate(-618.07 -360.22)"/><path class="cls-1" d="M747,361.67v20c0,5.41-1.56,10.06-7.4,10.06s-7.4-4.65-7.4-10.06v-20H727.4v21.45c0,7.49,4.54,13.33,12.22,13.33s12.22-5.83,12.22-13.33V361.67Z" transform="translate(-618.07 -360.22)"/><path class="cls-1" d="M692.62,371.81a38.14,38.14,0,0,0-4.83-1h0l-3.5-9.16h-5.23l3.4,8.76h.07a67.46,67.46,0,0,0-10.37.65c-4.39.59-9.63,2.33-15.08,4.35a12.91,12.91,0,0,1,19.21-7.54l2.27-4.28a17.74,17.74,0,0,0-26.71,13.8c-7.17,2.74-14.34,5.48-20,6.24a62.85,62.85,0,0,1-13.75.57c6,1.6,12.36,1.72,20.34.66,11.48-1.53,28.85-11,40.35-12.57a61.26,61.26,0,0,1,13.87-.5" transform="translate(-618.07 -360.22)"/><path class="cls-1" d="M711.3,384.76l-9.13-24.55L693,384.76l-2.5-6.62c-1.57.1-3.19.25-4.9.46l7.41,19.18,9.12-24.39,9.12,24.39,14-36.11h-5.22Z" transform="translate(-618.07 -360.22)"/><path class="cls-1" d="M669.53,391.78a12.85,12.85,0,0,1-10.07-4.84c-1.62.6-3.18,1.19-4.74,1.72A17.76,17.76,0,0,0,678.79,394l-2-4.47a12.86,12.86,0,0,1-7.27,2.24" transform="translate(-618.07 -360.22)"/></svg>